<svg width="20" height="20" viewBox="0 0 20 20" fill="none" xmlns="http://www.w3.org/2000/svg">
<path d="M11.5252 15.8333C11.4007 15.8338 11.2777 15.8063 11.1652 15.7529C11.0527 15.6996 10.9536 15.6217 10.8752 15.525L6.85022 10.525C6.72765 10.3759 6.66064 10.1888 6.66064 9.99583C6.66064 9.80281 6.72765 9.61577 6.85022 9.46666L11.0169 4.46666C11.1583 4.29648 11.3616 4.18946 11.5819 4.16915C11.8023 4.14883 12.0217 4.21688 12.1919 4.35833C12.3621 4.49978 12.4691 4.70304 12.4894 4.92339C12.5097 5.14375 12.4417 5.36315 12.3002 5.53333L8.57522 10L12.1752 14.4667C12.2771 14.589 12.3419 14.7379 12.3618 14.8959C12.3816 15.0538 12.3559 15.2142 12.2875 15.358C12.2191 15.5017 12.111 15.6229 11.9759 15.7072C11.8408 15.7914 11.6844 15.8352 11.5252 15.8333Z" fill="#17181A"/>
</svg>
