<svg width="50" height="39" viewBox="0 0 50 39" fill="none" xmlns="http://www.w3.org/2000/svg">
<path d="M50 20.791L40.8142 14C44.3989 30.5247 24.235 46.3703 9 29.3929C26.6995 51.3504 45.2951 30.072 45.2951 20.791H50Z" fill="#387BFD"/>
<path d="M0 18.2757L8.96175 25C5.46448 8.63762 22.2951 -8.49593 40 10.1079C24.918 -12.0822 3.93443 7.6423 4.59016 18.2757H0Z" fill="#387BFD"/>
<path d="M17 15H20V25H17V15Z" fill="#1FF787"/>
<path d="M21.5 13H24.5V25H21.5V13Z" fill="#1FF787"/>
<path d="M26 14H29V25H26V14Z" fill="#1FF787"/>
<path d="M30.5 12H33.5V25H30.5V12Z" fill="#1FF787"/>
</svg>
